<svg xmlns="http://www.w3.org/2000/svg" xmlns:xlink="http://www.w3.org/1999/xlink" id="_&#xEB;&#xEE;&#xE9;_1" data-name="&#x2018;&#xEB;&#xEE;&#xE9;_1" viewBox="0 0 898.18 722.99"><defs><style>.cls-1{fill:url(#책챌청챙횩챠챠청챕_찾챨횪채챔책챠챵_1070);}.cls-2{fill:url(#책챌청챙횩챠챠청챕_찾챨횪채챔책챠챵_5);}.cls-3{fill:none;}.cls-4{fill:#fff;}.cls-5{fill:url(#책챌청챙횩챠챠청챕_찾챨횪채챔책챠챵_213);}.cls-6{fill:url(#챤창청챕_챤찼챨횪챌책철_찾챨횪채챔책챠챵횪_2);}</style><linearGradient id="&#xE5;&#xE7;&#xFB;&#xEC;&#xDF;&#xED;&#xED;&#xFB;&#xE9;_&#xE3;&#xF0;&#xE0;&#xE4;&#xE8;&#xE5;&#xED;&#xF2;_1070" x1="96.3" y1="286.31" x2="321.12" y2="720.98" gradientUnits="userSpaceOnUse"><stop offset="0" stop-color="#00a3df"></stop><stop offset="1" stop-color="#006adf"></stop></linearGradient><linearGradient id="&#xE5;&#xE7;&#xFB;&#xEC;&#xDF;&#xED;&#xED;&#xFB;&#xE9;_&#xE3;&#xF0;&#xE0;&#xE4;&#xE8;&#xE5;&#xED;&#xF2;_5" x1="64.45" y1="297.03" x2="331.87" y2="692.34" gradientUnits="userSpaceOnUse"><stop offset="0" stop-color="#00bcff"></stop><stop offset="1" stop-color="#007dff"></stop></linearGradient><linearGradient id="&#xE5;&#xE7;&#xFB;&#xEC;&#xDF;&#xED;&#xED;&#xFB;&#xE9;_&#xE3;&#xF0;&#xE0;&#xE4;&#xE8;&#xE5;&#xED;&#xF2;_213" x1="647.27" y1="8.02" x2="494.13" y2="609.52" gradientUnits="userSpaceOnUse"><stop offset="0" stop-color="#98c730"></stop><stop offset="0.07" stop-color="#90c531"></stop><stop offset="1" stop-color="#2aa63b"></stop></linearGradient><linearGradient id="&#xEE;&#xE2;&#xFB;&#xE9;_&#xEE;&#xE1;&#xF0;&#xE0;&#xE7;&#xE5;&#xF6;_&#xE3;&#xF0;&#xE0;&#xE4;&#xE8;&#xE5;&#xED;&#xF2;&#xE0;_2" x1="688.54" y1="2.3" x2="426.89" y2="578.37" gradientUnits="userSpaceOnUse"><stop offset="0" stop-color="#a7d63f"></stop><stop offset="0.07" stop-color="#9fd440"></stop><stop offset="1" stop-color="#39b54a"></stop></linearGradient></defs><path class="cls-1" d="M298.68,692.59,322.86,718,320,681.48h19c26.25,0,48-23.66,50.9-54.94l16.42-175.49c2-21.75-5.49-42.86-18.41-57h0l-15.07-16.46h0c-8.59-9.38-19.56-15.67-31.68-17l-.22,0L69.34,332.19a53.61,53.61,0,0,0-41.83,13.5c-14.59,13-23,34.11-20.56,57.94L27.82,603.44a72.93,72.93,0,0,0,18.35,41.73l0,0,15,16.43,0,0,0,0c11.27,12.32,26.62,19.82,43.23,19.82H288.1Z"></path><path class="cls-2" d="M340.88,360.59,69.34,332.19C32.1,328.29,2.57,361.68,7,403.63L27.82,603.44C31.49,638.55,58.22,665,89.42,665H273l10.58,11.11,24.19,25.41L304.89,665h19c26.25,0,48-23.65,50.9-54.93l16.42-175.49C394.58,398.28,371.35,363.78,340.88,360.59Z"></path><path class="cls-3" d="M387.53,393.8h0l-15.07-16.47h0l-.18-.19c-.45-.49-.91-1-1.38-1.46l-.1-.09c-.49-.5-1-1-1.5-1.46l-.33-.31q-.75-.7-1.53-1.38l-.2-.17c-.48-.41-1-.81-1.45-1.2l-.31-.25c-.53-.42-1.06-.83-1.6-1.22l-.34-.25c-.51-.37-1-.73-1.56-1.09l-.16-.11c-.56-.37-1.13-.73-1.7-1.08l-.39-.23c-.57-.35-1.15-.68-1.74-1l-.19-.1c-.54-.3-1.09-.58-1.65-.86l-.36-.18c-.59-.28-1.19-.56-1.79-.82l-.36-.15c-.56-.24-1.13-.47-1.7-.69l-.23-.09c-.62-.23-1.24-.45-1.87-.65l-.42-.14c-.64-.2-1.27-.39-1.92-.56l-.15,0c-.61-.16-1.22-.31-1.83-.44l-.42-.09c-.64-.14-1.28-.26-1.93-.37l-.38-.06q-.9-.14-1.8-.24l-.21,0-.22,0L69,331.91c-.54-.06-1.09-.11-1.63-.15l-.53,0-1.1-.07-.61,0-1,0H61.9c-.35,0-.69,0-1,0l-.56,0-1.26.08-.31,0-1.56.14-.43.06-1.11.14-.57.08-1,.16-.6.1-.93.18-.6.12L51,333l-.56.13-1.06.27-.42.11c-.49.13-1,.27-1.46.42l-.28.09-1.16.37-.51.18-.92.33-.55.21-.87.33-.56.23-.86.37-.53.23-.92.43-.45.21-1.31.65,0,0c-.45.23-.89.46-1.33.71l-.42.24c-.3.16-.59.33-.88.5l-.5.3-.79.49-.51.32-.77.51-.49.33-.8.56-.44.31-1,.71-.25.19-1.18.93-.32.27c-.29.23-.56.47-.84.7l-.43.37-.47.42-.2.18-.8.74-.47.44c-.31.29-.61.59-.91.89l-.33.33c-.41.42-.81.84-1.21,1.27l-.24.26-.93,1-.4.48c-.25.28-.49.57-.73.87l-.44.54-.67.84-.44.58-.63.86-.42.58c-.22.3-.42.6-.63.91l-.39.56-.66,1c-.1.16-.21.32-.31.49q-.48.75-.93,1.53l0,0q-.45.76-.87,1.53l-.28.53q-.3.54-.57,1.08l-.32.63c-.17.34-.33.67-.49,1s-.22.45-.32.67-.31.67-.46,1l-.3.69c-.15.34-.29.69-.43,1s-.19.45-.28.68-.29.74-.43,1.12c-.08.21-.16.41-.23.62-.17.47-.34.95-.5,1.43l-.12.33c-.2.59-.39,1.19-.57,1.79l-.15.52c-.13.43-.25.87-.37,1.3-.07.23-.13.46-.19.7s-.2.77-.29,1.15l-.18.76c-.09.37-.17.75-.25,1.13s-.11.51-.17.77-.15.77-.22,1.15-.1.51-.14.77-.14.8-.2,1.21c0,.24-.08.48-.11.72-.07.47-.14.93-.2,1.4,0,.19,0,.37-.07.55-.08.65-.15,1.31-.21,2l0,.4q-.07.8-.12,1.59c0,.24,0,.48,0,.72,0,.43,0,.86-.07,1.29,0,.27,0,.54,0,.81s0,.82,0,1.23,0,.56,0,.84,0,.82,0,1.23,0,.56,0,.84c0,.43,0,.85,0,1.28,0,.27,0,.53,0,.8,0,.47.05.94.08,1.41,0,.23,0,.45.05.68,0,.7.12,1.4.19,2.11L27.5,603.16c.06.53.12,1.06.19,1.59,0,.17,0,.34.07.52,0,.35.09.7.14,1.05s.06.42.1.63.09.62.14.93l.12.67c0,.29.11.59.16.89s.09.45.13.67l.18.86c0,.23.09.46.14.69s.13.56.19.84.11.46.16.68l.21.83c.05.23.11.45.17.68l.22.82.19.67.24.81c.06.23.13.45.2.67s.16.54.25.81l.21.64c.09.28.18.55.28.83l.21.62.3.84c.07.19.14.39.22.59s.22.59.34.88.13.35.2.52c.15.38.31.76.46,1.13,0,.09.07.18.11.26.2.46.39.92.6,1.38.06.14.13.29.2.43l.42.92.26.54.39.8c.09.19.19.38.29.57s.25.5.38.75l.31.58.39.73c.11.19.22.38.32.57s.27.48.41.71l.33.57c.14.23.27.47.41.69s.23.39.35.57l.42.68.36.56.44.67.37.55.45.66.37.53.48.67c.12.16.24.34.37.5s.33.45.5.67.24.33.37.49l.55.69c.11.15.22.29.34.43l.66.81.25.3c.31.37.61.73.93,1.08l.24.28.66.73,0,0,15,16.43,0,0,0,0c11.27,12.32,26.62,19.81,43.24,19.81H287.78l10.58,11.11,24.19,25.41-2.91-36.52h19c26.25,0,48-23.65,50.9-54.94l16.42-175.48C408,429,400.45,407.91,387.53,393.8Z"></path><ellipse class="cls-4" cx="106.55" cy="512.35" rx="24.7" ry="25.47"></ellipse><ellipse class="cls-4" cx="201.88" cy="512.05" rx="24.7" ry="25.47"></ellipse><ellipse class="cls-4" cx="297.2" cy="511.74" rx="24.7" ry="25.47"></ellipse><path class="cls-5" d="M767.65,529.25c46.79,0,86.87-39.66,92.37-92.32l31.3-299.65c3.37-32.21-6.6-61-24.63-80.75l0,0L844.07,31.84l0,0c-17.18-18.75-41.67-29.2-68.9-26.35L367.94,48.05c-15.37,1.6-29.51,8.52-41.31,19.07-23.31,20.81-37.52,55.76-34.14,91.89l24.63,263.16c2.18,23.3,11.31,43.79,24.78,58.5l22.62,24.7c13.64,14.9,31.72,23.88,51.53,23.88h2.23l3.46,44.19,22.62,24.7,29.75-44.33,16.48-24.56Z"></path><path class="cls-6" d="M775.14,5.46,367.94,48.05c-45.7,4.78-80.54,56.52-75.45,111l24.63,263.16c4.39,46.91,36.95,82.38,76.32,82.38h22.9l1.11,14.12,4.29,54.77,29.75-44.33L468,504.55H745c46.79,0,86.87-39.66,92.37-92.32l31.3-299.64C875.27,49.69,831-.38,775.14,5.46Z"></path><path class="cls-4" d="M471.92,336.5q-9.42-11.85-23.27-11.86a27.79,27.79,0,0,0-11.29,2.29,27.34,27.34,0,0,0-8.93,6.21,28.83,28.83,0,0,0-5.89,9.35,31.57,31.57,0,0,0-2.14,11.71,31.9,31.9,0,0,0,2.14,11.85,29,29,0,0,0,6,9.43,27.73,27.73,0,0,0,8.93,6.28,26.8,26.8,0,0,0,11.08,2.29q13,0,23.41-11.43v33.13l-2.77,1a79.71,79.71,0,0,1-11.64,3.36,55,55,0,0,1-10.66,1.07A52.36,52.36,0,0,1,426.14,407a53.89,53.89,0,0,1-17.45-11.85A58.84,58.84,0,0,1,396.58,377a57.63,57.63,0,0,1,12-63.54,54.91,54.91,0,0,1,17.52-11.71A53.11,53.11,0,0,1,447,297.51a55.82,55.82,0,0,1,12.25,1.36,73.75,73.75,0,0,1,12.68,4.21Z"></path><path class="cls-4" d="M520.66,342.07h39.2V300.51H587V408.18H559.86V363.77h-39.2v44.41H493.52V300.51h27.14Z"></path><path class="cls-4" d="M672.86,389.47H634.09l-6.24,18.71H598.91l39.75-107.67h29.63L708,408.18H679.1Zm-7.2-21.27-12.19-35.84L641.29,368.2Z"></path><path class="cls-4" d="M755,324.22v84H727.84v-84H705.55V300.51h71.73v23.71Z"></path><path class="cls-4" d="M440.83,143V244.69h39.44v28.72H407.94V143Z"></path><path class="cls-4" d="M530.11,143V273.41H497.22V143Z"></path><path class="cls-4" d="M579.11,143l30.54,79.42L640.36,143H676.1L622.74,273.41H596.56L543.36,143Z"></path><path class="cls-4" d="M761.35,171.67h-39.1v21.8h36.92v28.72H722.25v22.5h39.1v28.72h-72V143h72Z"></path></svg>