<svg xmlns="http://www.w3.org/2000/svg" xmlns:xlink="http://www.w3.org/1999/xlink" id="Layer_1" x="0px" y="0px" viewBox="0 0 373 50.1" style="enable-background:new 0 0 373 50.1;" xml:space="preserve"><style type="text/css">	.st0{fill:#5567AE;}	.st1{fill:#34AEC2;}	.st2{fill:#B3C335;}	.st3{fill:#818285;}	.st4{fill:#FEBD30;}	.st5{fill:#153145;}	.st6{fill:#2E3033;}</style><g>	<path class="st0" d="M22.2,38.5l-4.5,9.9l-4.1-9.8L1.7,36.1l-1.5-5.3L15,30.1h0c2,0.2,4.7,1.2,5.8,4.1l1.5,3.9  C22.3,38.2,22.3,38.4,22.2,38.5"></path>	<path class="st1" d="M43.6,28l3.7,9.7l-10.1-4.1c-0.2-0.1-0.3-0.2-0.4-0.3l-1.5-3.6c-0.8-1.9-0.5-3.7,0.2-5.1c0,0,0-0.1,0.1-0.1  c0.5-0.9,1.3-1.7,1.8-2.1c0,0,0.1-0.1,0.1-0.1l0.2-0.1l0.1-0.1l11.1-8.3l1.7,4.6L43.6,28z"></path>	<path class="st2" d="M14.4,25.9l-2.6,2.8c-0.1,0.2-0.4,0.3-0.6,0.3L0.3,29.5l6.8-8L3.9,10.1l3.6-3.3l5.8,8.2l0,0l1.1,1.8  C14.3,16.9,18,22,14.4,25.9"></path>	<path class="st3" d="M31.5,0.6L27.2,11c0,0,0,0.1-0.1,0.3c-0.3,0.8-1.3,2.6-2.7,3.7c-0.1,0.1-0.3,0.2-0.5,0.3  c-0.2,0.1-0.4,0.2-0.5,0.3c-0.1,0-0.1,0.1-0.2,0.1c-1.1,0.5-2.3,0.8-3.8,0.4l-3.5-0.7c-0.4-0.1-0.7-0.3-0.9-0.6L8.9,6.5L8.7,6.1  l10.8,1.8l7.1-7.3L27.1,0h0.1L31.5,0.6z"></path>	<path class="st4" d="M48,12.7L39.7,19c-0.4,0.3-0.8,0.4-1.2,0.3l-3.9-0.5c-5.2-0.6-5.9-6.9-5.9-6.9l0-0.2c0,0,0,0,0-0.1  c0-0.2,0-0.3,0-0.5c0-0.1,0.1-0.1,0.1-0.1l4-9.8l0.2,0.4l4.3,9.2L48,12.7z"></path>	<path class="st5" d="M46.9,39l-3.3,4.5l-11.9-1.8l-1.3,1.4l-5.9,7l-5.8-0.7l5.1-11.1c0,0,0,0,0,0c0-0.1,0.2-0.3,0.4-0.6  c0,0,0,0,0,0c0.5-0.8,1.6-2.2,3.1-3.4c0,0,0,0,0,0c0,0,0,0,0,0c0.1-0.1,0.1-0.1,0.2-0.2c0,0,0,0,0,0c0.1,0,0.1-0.1,0.2-0.1  c0.9-0.6,3-1.4,5.4-0.5L46.9,39z"></path>	<path class="st3" d="M27.5,34.1c-0.1,0.1-0.2,0.1-0.2,0.2C27.3,34.3,27.4,34.2,27.5,34.1"></path>	<path class="st6" d="M370.5,21.2v-0.2c0-0.5,0.2-0.9,0.5-1.1c0.3-0.2,0.8-0.3,1.5-0.3h0.2v-2.8c-0.1,0-0.2,0-0.3,0  c-0.1,0-0.2,0-0.3,0c-1.6,0-2.8,0.3-3.6,1c-0.8,0.7-1.2,1.7-1.2,3.1v0.4h-1.5v2.7h1.6v10.5h3V23.9h2.2v-2.7H370.5z M364.1,16.9H361  v17.5h3.1V16.9z M359,28.8c0-0.1,0-0.2,0-0.3s0-0.3,0-0.3c0-0.9-0.1-1.7-0.3-2.4c-0.2-0.7-0.5-1.3-1-1.9c-0.7-0.9-1.6-1.7-2.6-2.2  c-1-0.5-2.1-0.8-3.3-0.8c-0.9,0-1.8,0.2-2.7,0.6c-0.9,0.4-1.6,0.9-2.3,1.6c-0.6,0.7-1.1,1.4-1.4,2.2c-0.3,0.8-0.5,1.7-0.5,2.6  c0,0.9,0.2,1.8,0.5,2.6c0.3,0.9,0.8,1.6,1.5,2.3c0.7,0.7,1.4,1.2,2.3,1.5c0.8,0.3,1.8,0.5,2.8,0.5c1.5,0,2.8-0.4,3.9-1.2  c1.1-0.8,2-1.9,2.6-3.4h-3.4c-0.3,0.5-0.8,0.9-1.3,1.2c-0.6,0.3-1.2,0.4-1.9,0.4c-1.1,0-1.9-0.3-2.6-0.8c-0.7-0.5-1-1.3-1.2-2.3  H359z M348.4,26.3c0.2-0.8,0.7-1.5,1.3-2c0.7-0.5,1.4-0.7,2.2-0.7c1,0,1.8,0.2,2.4,0.7c0.6,0.5,1.1,1.1,1.4,2H348.4z M334.8,30  c0.1,1.5,0.5,2.6,1.3,3.5c0.8,0.9,1.8,1.3,3.1,1.3c1.3,0,2.4-0.4,3.2-1.2c0.8-0.8,1.3-1.8,1.3-3.1c0-1-0.2-1.8-0.6-2.4  c-0.4-0.6-1.2-1.1-2.4-1.7c-0.2-0.1-0.4-0.2-0.7-0.3c-1.2-0.5-1.8-1-1.8-1.6c0-0.4,0.1-0.6,0.3-0.9c0.2-0.2,0.5-0.4,0.9-0.4  c0.4,0,0.7,0.1,0.9,0.4c0.2,0.2,0.3,0.6,0.3,1v0.1h2.8c-0.1-1.2-0.4-2.2-1.1-2.9c-0.7-0.7-1.6-1-2.8-1c-1.1,0-2.1,0.4-2.9,1.2  c-0.8,0.8-1.2,1.7-1.2,2.8c0,0.6,0.1,1.2,0.4,1.7c0.2,0.5,0.6,0.9,1.1,1.3c0.2,0.1,0.6,0.3,1.2,0.6c0.6,0.2,1.1,0.4,1.4,0.6  c0.5,0.3,0.9,0.5,1.1,0.8c0.2,0.3,0.3,0.6,0.3,1c0,0.4-0.1,0.8-0.4,1s-0.7,0.4-1.1,0.4c-0.5,0-0.9-0.2-1.2-0.5  c-0.3-0.4-0.5-0.8-0.5-1.4V30L334.8,30z M332.1,34.4V23.9h2.1v-2.7h-2.1v-4.3h-3.1v4.3h-2.1v2.7h2.1v10.5H332.1z M325.2,21.2h-3.1  v13.2h3.1V21.2z M325.2,16.9h-3.1v2.9h3.1V16.9z M313.6,21c-0.7,0-1.3,0.1-1.9,0.4c-0.6,0.3-1.1,0.7-1.6,1.3v-1.5h-2.9v13.2h3.1  v-6.8c0-1.4,0.2-2.3,0.7-2.9c0.5-0.5,1.3-0.8,2.5-0.9V21z M291.7,30.4c0.3,0.8,0.8,1.6,1.5,2.3c0.7,0.7,1.4,1.2,2.3,1.6  s1.8,0.5,2.8,0.5c1,0,1.9-0.2,2.8-0.5c0.9-0.3,1.6-0.9,2.3-1.5c0.7-0.7,1.2-1.4,1.5-2.3c0.3-0.8,0.5-1.8,0.5-2.8  c0-0.9-0.2-1.8-0.6-2.7c-0.4-0.9-0.9-1.6-1.6-2.3c-0.7-0.6-1.4-1.1-2.3-1.4c-0.8-0.3-1.7-0.5-2.7-0.5c-0.9,0-1.8,0.2-2.6,0.5  c-0.8,0.4-1.6,0.9-2.3,1.5c-0.7,0.7-1.2,1.4-1.5,2.2c-0.3,0.8-0.5,1.7-0.5,2.7C291.2,28.7,291.4,29.5,291.7,30.4 M295.5,24.9  c0.7-0.7,1.6-1.1,2.7-1.1c1.1,0,2,0.4,2.7,1.1c0.7,0.7,1.1,1.6,1.1,2.8c0,1.2-0.3,2.2-1,3c-0.7,0.7-1.6,1.1-2.8,1.1  c-1.2,0-2.1-0.4-2.8-1.1c-0.7-0.7-1-1.7-1-2.9C294.5,26.6,294.8,25.6,295.5,24.9 M288.3,21.2v-0.2c0-0.5,0.2-0.9,0.5-1.1  c0.3-0.2,0.8-0.3,1.5-0.3h0.2v-2.8c-0.1,0-0.2,0-0.3,0c-0.1,0-0.2,0-0.3,0c-1.6,0-2.8,0.3-3.6,1c-0.8,0.7-1.2,1.7-1.2,3.1v0.4h-1.5  v2.7h1.6v10.5h3V23.9h2.2v-2.7H288.3z M266.4,30c0.1,1.5,0.5,2.6,1.3,3.5c0.8,0.9,1.8,1.3,3.1,1.3c1.3,0,2.4-0.4,3.2-1.2  c0.8-0.8,1.3-1.8,1.3-3.1c0-1-0.2-1.8-0.6-2.4c-0.4-0.6-1.2-1.1-2.4-1.7c-0.2-0.1-0.4-0.2-0.7-0.3c-1.2-0.5-1.8-1-1.8-1.6  c0-0.4,0.1-0.6,0.3-0.9c0.2-0.2,0.5-0.4,0.9-0.4c0.4,0,0.7,0.1,0.9,0.4c0.2,0.2,0.3,0.6,0.3,1v0.1h2.8c-0.1-1.2-0.4-2.2-1.1-2.9  c-0.7-0.7-1.6-1-2.8-1c-1.1,0-2.1,0.4-2.9,1.2c-0.8,0.8-1.2,1.7-1.2,2.8c0,0.6,0.1,1.2,0.4,1.7c0.2,0.5,0.6,0.9,1.1,1.3  c0.2,0.1,0.6,0.3,1.2,0.6c0.6,0.2,1.1,0.4,1.4,0.6c0.5,0.3,0.9,0.5,1.1,0.8c0.2,0.3,0.3,0.6,0.3,1c0,0.4-0.1,0.8-0.4,1  s-0.7,0.4-1.1,0.4c-0.5,0-0.9-0.2-1.2-0.5c-0.3-0.4-0.5-0.8-0.5-1.4V30L266.4,30z M257.8,27.7l4.9,6.7h3.9l-5.6-7l4.7-6.3h-3.5  l-4.4,6.1V16.9h-3v17.5h3V27.7z M252,34.4V21.2H249v1.6c-0.4-0.7-1-1.1-1.7-1.5c-0.7-0.3-1.5-0.5-2.5-0.5c-1,0-1.9,0.2-2.7,0.5  c-0.8,0.3-1.6,0.8-2.2,1.5c-0.6,0.6-1.1,1.4-1.4,2.2c-0.3,0.8-0.5,1.7-0.5,2.6c0,2,0.7,3.6,2,5c1.3,1.3,3,2,5,2  c1.1,0,1.9-0.2,2.6-0.5c0.7-0.3,1.2-0.8,1.6-1.5v1.6H252z M242.2,25c0.7-0.7,1.7-1.1,2.7-1.1c1,0,1.9,0.4,2.6,1.2  c0.8,0.8,1.1,1.7,1.1,2.8c0,1-0.4,1.9-1.1,2.6c-0.8,0.8-1.6,1.1-2.6,1.1c-1.1,0-2-0.4-2.8-1.1c-0.8-0.7-1.1-1.7-1.1-2.8  C241.1,26.6,241.4,25.7,242.2,25 M236.7,28.8c0-0.1,0-0.2,0-0.3c0-0.1,0-0.3,0-0.3c0-0.9-0.1-1.7-0.3-2.4c-0.2-0.7-0.5-1.3-1-1.9  c-0.7-0.9-1.6-1.7-2.6-2.2c-1-0.5-2.1-0.8-3.3-0.8c-0.9,0-1.8,0.2-2.7,0.6c-0.9,0.4-1.6,0.9-2.3,1.6c-0.6,0.7-1.1,1.4-1.4,2.2  c-0.3,0.8-0.5,1.7-0.5,2.6c0,0.9,0.2,1.8,0.5,2.6c0.3,0.9,0.8,1.6,1.5,2.3c0.7,0.7,1.4,1.2,2.3,1.5c0.8,0.3,1.8,0.5,2.8,0.5  c1.5,0,2.8-0.4,3.9-1.2c1.1-0.8,2-1.9,2.6-3.4h-3.4c-0.3,0.5-0.8,0.9-1.3,1.2c-0.6,0.3-1.2,0.4-1.9,0.4c-1.1,0-1.9-0.3-2.6-0.8  c-0.7-0.5-1-1.3-1.2-2.3H236.7z M226,26.3c0.2-0.8,0.7-1.5,1.3-2c0.7-0.5,1.4-0.7,2.2-0.7c1,0,1.8,0.2,2.4,0.7  c0.6,0.5,1.1,1.1,1.3,2H226z M212.1,34.4c0.7,0.2,1.4,0.3,2.3,0.3c0.9,0,1.7-0.2,2.5-0.5c0.8-0.3,1.5-0.7,2.1-1.3  c0.7-0.7,1.3-1.4,1.7-2.3c0.4-0.9,0.6-1.8,0.6-2.8c0-1.1-0.2-2.1-0.7-3c-0.4-0.9-1.1-1.8-1.9-2.4c-0.6-0.5-1.3-0.9-2-1.2  c-0.7-0.3-1.5-0.4-2.4-0.4c-0.8,0-1.5,0.1-2.2,0.4c-0.7,0.2-1.3,0.6-2,1.1v-1.1h-3.1v17.5h3.1v-5.3  C210.8,33.8,211.5,34.2,212.1,34.4 M211.5,25c0.7-0.7,1.6-1.1,2.6-1.1c1.2,0,2.1,0.4,2.9,1.1c0.8,0.7,1.1,1.7,1.1,2.8  c0,1.1-0.4,2-1.1,2.8c-0.8,0.8-1.7,1.2-2.8,1.2c-1.1,0-2-0.4-2.7-1.1c-0.7-0.8-1.1-1.7-1.1-2.8C210.4,26.7,210.7,25.7,211.5,25   M196.4,30c0.1,1.5,0.5,2.6,1.3,3.5c0.8,0.9,1.8,1.3,3.1,1.3c1.3,0,2.4-0.4,3.2-1.2c0.8-0.8,1.3-1.8,1.3-3.1c0-1-0.2-1.8-0.6-2.4  c-0.4-0.6-1.2-1.1-2.4-1.7c-0.2-0.1-0.4-0.2-0.7-0.3c-1.2-0.5-1.8-1-1.8-1.6c0-0.4,0.1-0.6,0.3-0.9c0.2-0.2,0.5-0.4,0.9-0.4  c0.4,0,0.7,0.1,0.9,0.4c0.2,0.2,0.3,0.6,0.3,1v0.1h2.8c-0.1-1.2-0.4-2.2-1.1-2.9c-0.7-0.7-1.6-1-2.8-1c-1.1,0-2.1,0.4-2.9,1.2  c-0.8,0.8-1.2,1.7-1.2,2.8c0,0.6,0.1,1.2,0.4,1.7c0.2,0.5,0.6,0.9,1.1,1.3c0.2,0.1,0.6,0.3,1.2,0.6c0.6,0.2,1.1,0.4,1.4,0.6  c0.5,0.3,0.9,0.5,1.1,0.8c0.2,0.3,0.3,0.6,0.3,1c0,0.4-0.1,0.8-0.4,1s-0.7,0.4-1.1,0.4c-0.5,0-0.9-0.2-1.2-0.5  c-0.3-0.4-0.5-0.8-0.5-1.4V30L196.4,30z M187.9,28.8c0-0.1,0-0.2,0-0.3c0-0.1,0-0.3,0-0.3c0-0.9-0.1-1.7-0.3-2.4  c-0.2-0.7-0.5-1.3-1-1.9c-0.7-0.9-1.6-1.7-2.6-2.2c-1-0.5-2.1-0.8-3.3-0.8c-0.9,0-1.8,0.2-2.7,0.6c-0.9,0.4-1.6,0.9-2.3,1.6  c-0.6,0.7-1.1,1.4-1.4,2.2c-0.3,0.8-0.5,1.7-0.5,2.6c0,0.9,0.2,1.8,0.5,2.6c0.3,0.9,0.8,1.6,1.5,2.3c0.7,0.7,1.4,1.2,2.3,1.5  c0.8,0.3,1.8,0.5,2.8,0.5c1.5,0,2.8-0.4,3.9-1.2c1.1-0.8,2-1.9,2.6-3.4h-3.4c-0.3,0.5-0.8,0.9-1.3,1.2c-0.6,0.3-1.2,0.4-1.9,0.4  c-1.1,0-1.9-0.3-2.6-0.8c-0.7-0.5-1-1.3-1.2-2.3H187.9z M177.3,26.3c0.2-0.8,0.7-1.5,1.3-2c0.7-0.5,1.4-0.7,2.2-0.7  c1,0,1.8,0.2,2.4,0.7c0.6,0.5,1.1,1.1,1.3,2H177.3z M172,34.4V21.2h-3.1v5.7c0,1.8-0.2,3-0.7,3.8c-0.5,0.7-1.2,1.1-2.2,1.1  c-1,0-1.7-0.3-2.2-1c-0.4-0.7-0.6-1.9-0.6-3.7v-5.9h-3.2v7.7c0,1.9,0.5,3.4,1.4,4.4c0.9,1,2.2,1.5,3.9,1.5c0.8,0,1.4-0.1,2-0.4  c0.6-0.3,1.1-0.7,1.6-1.3v1.4H172z M157.4,16.9h-3.1v17.5h3.1V16.9z M151.6,34.4V21.2h-3.1v1.6c-0.4-0.7-1-1.1-1.7-1.5  c-0.7-0.3-1.5-0.5-2.5-0.5c-1,0-1.9,0.2-2.7,0.5c-0.8,0.3-1.6,0.8-2.2,1.5c-0.6,0.6-1.1,1.4-1.4,2.2c-0.3,0.8-0.5,1.7-0.5,2.6  c0,2,0.7,3.6,2,5c1.3,1.3,3,2,5,2c1.1,0,1.9-0.2,2.6-0.5c0.7-0.3,1.2-0.8,1.6-1.5v1.6H151.6z M141.7,25c0.7-0.7,1.7-1.1,2.7-1.1  c1,0,1.9,0.4,2.6,1.2c0.8,0.8,1.1,1.7,1.1,2.8c0,1-0.4,1.9-1.1,2.6c-0.7,0.8-1.6,1.1-2.6,1.1c-1.1,0-2-0.4-2.8-1.1  c-0.8-0.7-1.1-1.7-1.1-2.8C140.6,26.6,140.9,25.7,141.7,25 M137.2,21.2H134l-3.2,8.8l-3.1-8.8h-3.3l5.1,13.2h2.5L137.2,21.2z   M116,16.9h-3.1v17.5h3.1V16.9z M110.1,34.4V21.2h-3.1v1.6c-0.4-0.7-1-1.1-1.7-1.5c-0.7-0.3-1.5-0.5-2.5-0.5c-1,0-1.9,0.2-2.7,0.5  c-0.8,0.3-1.6,0.8-2.2,1.5c-0.6,0.6-1.1,1.4-1.4,2.2c-0.3,0.8-0.5,1.7-0.5,2.6c0,2,0.7,3.6,2,5c1.3,1.3,3,2,5,2  c1.1,0,1.9-0.2,2.6-0.5c0.7-0.3,1.2-0.8,1.6-1.5v1.6H110.1z M100.3,25c0.7-0.7,1.7-1.1,2.7-1.1c1,0,1.9,0.4,2.6,1.2  c0.8,0.8,1.1,1.7,1.1,2.8c0,1-0.4,1.9-1.1,2.6c-0.7,0.8-1.6,1.1-2.6,1.1c-1.1,0-2-0.4-2.8-1.1c-0.8-0.7-1.1-1.7-1.1-2.8  C99.2,26.6,99.5,25.7,100.3,25 M94.8,28.8c0-0.1,0-0.2,0-0.3c0-0.1,0-0.3,0-0.3c0-0.9-0.1-1.7-0.3-2.4c-0.2-0.7-0.5-1.3-1-1.9  c-0.7-0.9-1.6-1.7-2.6-2.2c-1-0.5-2.1-0.8-3.3-0.8c-0.9,0-1.8,0.2-2.7,0.6c-0.9,0.4-1.6,0.9-2.3,1.6c-0.6,0.7-1.1,1.4-1.4,2.2  c-0.3,0.8-0.5,1.7-0.5,2.6c0,0.9,0.2,1.8,0.5,2.6c0.4,0.9,0.8,1.6,1.5,2.3c0.7,0.7,1.4,1.2,2.3,1.5c0.8,0.3,1.8,0.5,2.8,0.5  c1.5,0,2.8-0.4,3.9-1.2c1.1-0.8,2-1.9,2.6-3.4H91c-0.3,0.5-0.8,0.9-1.3,1.2c-0.6,0.3-1.2,0.4-1.9,0.4c-1.1,0-1.9-0.3-2.6-0.8  c-0.7-0.5-1-1.3-1.2-2.3H94.8z M84.1,26.3c0.2-0.8,0.7-1.5,1.3-2c0.7-0.5,1.4-0.7,2.2-0.7c1,0,1.8,0.2,2.4,0.7  c0.6,0.5,1.1,1.1,1.3,2H84.1z M71.4,26.3l4.6,8.1h4.2l-4.4-6.8c1.3-0.3,2.3-0.9,3.1-1.8c0.8-0.9,1.1-2.1,1.1-3.4  c0-1.1-0.3-2.1-0.8-2.9c-0.5-0.8-1.3-1.5-2.3-1.9c-0.5-0.2-1-0.4-1.7-0.5c-0.7-0.1-1.7-0.1-3-0.1h-4.2v17.5h3.5V26.3z M71.4,19.7  h1.3c1.3,0,2.2,0.2,2.9,0.7c0.6,0.4,0.9,1.1,0.9,2.1c0,1-0.4,1.7-1.1,2.2c-0.7,0.5-1.8,0.8-3.2,0.8h-0.8V19.7z"></path></g></svg>